<?xml version="1.0" encoding="UTF-8" standalone="no"?>
<!-- Created with Inkscape (http://www.inkscape.org/) -->

<svg
   xmlns:dc="http://purl.org/dc/elements/1.1/"
   xmlns:cc="http://creativecommons.org/ns#"
   xmlns:rdf="http://www.w3.org/1999/02/22-rdf-syntax-ns#"
   xmlns:svg="http://www.w3.org/2000/svg"
   xmlns="http://www.w3.org/2000/svg"
   xmlns:sodipodi="http://sodipodi.sourceforge.net/DTD/sodipodi-0.dtd"
   xmlns:inkscape="http://www.inkscape.org/namespaces/inkscape"
   width="744.09448819"
   height="1052.3622047"
   id="svg2"
   version="1.1"
   inkscape:version="0.48.4 r9939"
   sodipodi:docname="back.svg"
   inkscape:export-filename="/home/avonster/pioneer/src/sweep_gui/resources/images/back.png"
   inkscape:export-xdpi="67.639923"
   inkscape:export-ydpi="67.639923">
  <defs
     id="defs4" />
  <sodipodi:namedview
     id="base"
     pagecolor="#ffffff"
     bordercolor="#666666"
     borderopacity="1.0"
     inkscape:pageopacity="0.0"
     inkscape:pageshadow="2"
     inkscape:zoom="5.6"
     inkscape:cx="294.56731"
     inkscape:cy="818.07708"
     inkscape:document-units="px"
     inkscape:current-layer="layer1"
     showgrid="false"
     inkscape:window-width="1651"
     inkscape:window-height="1024"
     inkscape:window-x="65"
     inkscape:window-y="24"
     inkscape:window-maximized="1" />
  <metadata
     id="metadata7">
    <rdf:RDF>
      <cc:Work
         rdf:about="">
        <dc:format>image/svg+xml</dc:format>
        <dc:type
           rdf:resource="http://purl.org/dc/dcmitype/StillImage" />
        <dc:title></dc:title>
      </cc:Work>
    </rdf:RDF>
  </metadata>
  <g
     inkscape:label="Layer 1"
     inkscape:groupmode="layer"
     id="layer1">
    <path
       style="fill:none;stroke:#000000;stroke-width:8.69999980999999956;stroke-linecap:butt;stroke-linejoin:miter;stroke-miterlimit:4;stroke-opacity:1;stroke-dasharray:none;fill-opacity:1"
       d="m 264.15489,274.54472 c 94.8721,9.83219 75.51295,-69.295 30.30458,-76.26651 l -4.24361,15.83737 -13.09329,-22.67824 21.01319,-5.63047 -3.67629,12.47134"
       id="path2985"
       inkscape:connector-curvature="0"
       sodipodi:nodetypes="cc" />
    <path
       style="fill:none;stroke:#000000;stroke-width:4.39416361;stroke-linecap:butt;stroke-miterlimit:4;stroke-opacity:1;stroke-dasharray:none;stroke-dashoffset:0"
       d="m 286.17466,197.84805 -2.03211,-3.52465 1.8897,-0.50884 c 4.1628,-1.12092 5.3026,-1.22923 5.01912,-0.47691 -0.14744,0.39129 -0.69049,2.35925 -1.20679,4.37324 -0.51629,2.01399 -1.09601,3.6618 -1.28826,3.6618 -0.19225,0 -1.264,-1.58609 -2.38166,-3.52464 z"
       id="path5693"
       inkscape:connector-curvature="0" />
    <path
       style="fill:none;stroke:#000000;stroke-width:0.27463523;stroke-linecap:butt;stroke-miterlimit:4;stroke-opacity:1;stroke-dasharray:none;stroke-dashoffset:0"
       d="m 287.70621,196.07068 c -0.10668,-0.18667 -0.18968,-0.34369 -0.18445,-0.34893 0.0191,-0.0191 0.57031,-0.15897 0.58179,-0.14761 0.007,0.006 -0.0366,0.19716 -0.0958,0.42383 l -0.1076,0.41212 -0.19397,-0.33941 z"
       id="path5695"
       inkscape:connector-curvature="0" />
    <path
       style="fill:none;stroke:#000000;stroke-width:0.0485491;stroke-linecap:butt;stroke-miterlimit:4;stroke-opacity:1;stroke-dasharray:none;stroke-dashoffset:0"
       d="m 287.84317,196.02656 c -0.0161,-0.0256 -0.12192,-0.21921 -0.12037,-0.22035 0.006,-0.004 0.1996,-0.0514 0.19947,-0.0485 -8e-5,0.002 -0.0159,0.0665 -0.0352,0.14324 -0.0339,0.13482 -0.0354,0.13904 -0.0439,0.12556 z"
       id="path5697"
       inkscape:connector-curvature="0" />
    <path
       style="fill:none;stroke:#000000;stroke-width:0.0485491;stroke-linecap:butt;stroke-miterlimit:4;stroke-opacity:1;stroke-dasharray:none;stroke-dashoffset:0"
       d="m 287.80302,195.89759 c -0.0203,-0.0376 -0.0368,-0.0699 -0.0368,-0.0719 0,-0.005 0.11413,-0.0323 0.11611,-0.0275 0.002,0.004 -0.0374,0.16196 -0.0409,0.1659 -8.7e-4,9.6e-4 -0.0181,-0.029 -0.0384,-0.0666 z"
       id="path5699"
       inkscape:connector-curvature="0" />
    <path
       style="fill:none;stroke:#000000;stroke-width:0.0485491;stroke-linecap:butt;stroke-miterlimit:4;stroke-opacity:1;stroke-dasharray:none;stroke-dashoffset:0"
       d="m 287.8169,195.8657 c -0.0124,-0.0242 -0.0119,-0.0253 0.0128,-0.0312 l 0.0161,-0.004 -0.004,0.024 c -0.005,0.0343 -0.0118,0.0371 -0.0251,0.011 z"
       id="path5701"
       inkscape:connector-curvature="0" />
  </g>
</svg>
